<?xml version="1.0" standalone="no"?>
<!DOCTYPE svg PUBLIC "-//W3C//DTD SVG 20010904//EN"
 "http://www.w3.org/TR/2001/REC-SVG-20010904/DTD/svg10.dtd">
<svg version="1.0" xmlns="http://www.w3.org/2000/svg"
 width="198.000000pt" height="198.000000pt" viewBox="0 0 198.000000 198.000000"
 preserveAspectRatio="xMidYMid meet">
<metadata>
Created by potrace 1.14, written by Peter Selinger 2001-2017
</metadata>
<g transform="translate(0.000000,198.000000) scale(0.100000,-0.100000)"
fill="#000000" stroke="none">
<path d="M1066 1888 c7 -25 35 -61 41 -54 7 7 -28 76 -39 76 -5 0 -6 -10 -2
-22z"/>
<path d="M1160 1826 c0 -37 19 -51 22 -16 0 11 1 25 2 32 1 6 -5 13 -11 16 -9
2 -13 -8 -13 -32z"/>
<path d="M1201 1801 c-15 -26 -14 -54 1 -49 15 5 29 56 18 63 -5 3 -14 -3 -19
-14z"/>
<path d="M1074 1799 c-8 -14 14 -29 44 -29 30 0 28 6 -7 25 -21 10 -32 12 -37
4z"/>
<path d="M750 1782 c-64 -9 -177 -45 -243 -78 -257 -130 -416 -319 -484 -574
-25 -93 -24 -300 1 -400 90 -359 440 -642 825 -666 74 -5 93 -4 85 6 -19 19
-5 46 32 64 44 20 44 20 44 -7 0 -25 -28 -57 -50 -57 -7 0 -11 -3 -7 -6 3 -3
43 1 89 11 128 26 243 97 383 239 106 107 136 146 221 285 63 106 174 341 174
371 0 7 7 10 16 6 17 -7 84 21 84 35 0 13 -24 11 -56 -6 -15 -8 -29 -13 -31
-11 -2 2 4 20 12 41 9 20 14 39 12 41 -2 3 -12 -17 -22 -43 -56 -152 -167
-363 -263 -503 -97 -142 -266 -315 -349 -359 -26 -13 -38 0 -25 26 30 57 46
286 30 413 -28 217 -106 437 -241 680 -55 100 -86 146 -72 108 5 -13 0 -17
-27 -20 -18 -2 -33 -7 -33 -13 0 -17 42 -17 58 0 15 14 18 13 32 -14 20 -40
19 -42 -11 -31 -29 11 -44 6 -44 -16 0 -17 55 -20 66 -3 8 14 28 -22 89 -161
67 -152 126 -336 140 -433 l7 -48 -41 17 c-33 13 -44 14 -56 4 -24 -20 -18
-28 26 -41 32 -10 45 -10 60 -1 10 7 19 9 19 5 1 -24 11 -133 14 -160 l4 -31
-47 19 c-36 15 -58 35 -91 80 -56 77 -125 140 -242 222 -127 89 -175 132 -219
199 -148 229 -50 509 276 792 l30 26 -75 -2 c-41 -1 -86 -4 -100 -6z m-400
-481 c6 -17 8 -35 4 -42 -5 -9 -12 -2 -20 22 -16 42 -16 49 -5 49 5 0 14 -13
21 -29z m61 -65 c-8 -21 -31 -35 -31 -17 0 5 5 22 11 38 8 21 12 24 19 14 4
-8 5 -23 1 -35z m-60 -44 c-16 -5 -63 27 -56 39 4 5 20 0 37 -13 18 -12 26
-24 19 -26z m99 4 c0 -16 -30 -50 -37 -42 -3 3 -3 17 1 31 7 26 36 35 36 11z
m-62 -31 c-3 -3 -9 2 -12 12 -6 14 -5 15 5 6 7 -7 10 -15 7 -18z m-18 -11 c13
-12 13 -14 0 -14 -32 0 -60 13 -60 27 0 17 36 9 60 -13z m80 -138 c51 -123
117 -258 172 -356 l42 -75 14 38 c16 39 47 51 54 20 7 -31 -13 -63 -39 -63
-23 0 -23 -1 13 -57 106 -168 256 -320 378 -385 28 -15 47 -27 43 -28 -15 0
-103 48 -142 80 l-40 32 -3 -25 c-3 -25 -17 -35 -58 -43 -25 -5 -46 16 -36 34
5 6 25 15 45 19 21 5 38 12 38 16 0 5 -40 50 -89 102 -158 165 -281 364 -377
611 -23 59 -31 71 -46 67 -20 -6 -69 21 -69 37 0 16 20 12 51 -11 20 -14 29
-16 28 -7 -1 19 -27 85 -28 71 -2 -22 -71 -13 -71 9 0 7 14 8 36 5 35 -6 36
-5 30 21 -7 33 -4 27 54 -112z m34 126 c8 -13 -22 -44 -39 -40 -14 3 -14 5 0
26 17 23 30 28 39 14z m16 -73 c0 -20 -21 -49 -35 -49 -18 0 -18 1 -5 34 9 25
40 37 40 15z m30 -68 c0 -27 -30 -55 -43 -42 -7 7 -5 18 7 35 20 31 36 34 36
7z m-85 -51 c9 -15 -38 -12 -60 3 -29 22 -9 40 25 22 16 -8 32 -19 35 -25z
m125 -19 c-1 -15 -29 -41 -44 -41 -20 0 -20 9 -1 37 14 20 46 23 45 4z m-119
-31 c25 -14 24 -30 -2 -30 -28 0 -61 19 -54 31 8 12 32 12 56 -1z m140 -10 c1
-5 2 -16 3 -22 3 -19 -23 -68 -35 -68 -11 0 -6 71 6 91 8 12 25 12 26 -1z
m-103 -80 c34 -21 42 -40 16 -40 -23 0 -74 32 -74 47 0 18 20 16 58 -7z m158
-4 c6 -17 -22 -76 -37 -76 -18 0 -21 28 -4 59 17 33 32 40 41 17z m-127 -67
c40 -14 35 -35 -8 -32 -34 1 -64 20 -55 34 7 12 24 11 63 -2z m181 -19 c0 -37
-50 -83 -65 -59 -10 16 25 69 45 69 11 0 20 -4 20 -10z m-126 -66 c24 -9 19
-34 -6 -35 -48 -3 -84 14 -72 32 6 10 55 12 78 3z m216 -90 c0 -42 -15 -74
-36 -74 -12 0 -13 9 -8 48 6 43 17 61 37 62 4 0 7 -16 7 -36z m-124 -35 c3 -5
-5 -13 -18 -18 -39 -14 -106 27 -82 51 7 8 92 -21 100 -33z m194 -48 c0 -37
-34 -81 -50 -65 -19 19 6 94 30 94 15 0 20 -7 20 -29z m-152 -21 c6 -16 -16
-30 -48 -30 -35 0 -54 15 -47 35 5 12 17 15 49 12 23 -2 44 -10 46 -17z m506
-42 c-1 -13 -3 -35 -3 -50 -1 -38 -25 -27 -44 22 l-15 39 32 4 c17 2 31 5 32
5 0 1 0 -8 -2 -20z m-300 -4 c17 -45 -1 -112 -24 -88 -10 11 -20 91 -12 99 11
10 30 5 36 -11z m-149 -33 c10 -17 -26 -41 -61 -41 -26 0 -34 4 -34 18 0 10 3
22 7 25 10 10 81 8 88 -2z m229 -57 c4 -42 -10 -82 -25 -67 -16 16 -21 105 -7
114 19 12 28 -2 32 -47z m213 -19 c0 -8 -4 -15 -9 -15 -10 0 -11 14 -1 23 9
10 10 9 10 -8z m-136 -2 c10 -68 0 -113 -26 -113 -19 0 -21 90 -3 108 14 14
27 16 29 5z m-201 -20 c2 -2 -1 -12 -6 -21 -15 -23 -92 -29 -100 -8 -13 34 3
45 53 39 26 -3 50 -7 53 -10z"/>
<path d="M1238 1740 c-19 -26 -23 -50 -9 -50 16 0 33 29 29 52 l-3 23 -17 -25z"/>
<path d="M1111 1740 c-8 -4 -10 -13 -7 -19 9 -14 56 -15 56 -1 0 15 -35 29
-49 20z"/>
<path d="M1268 1678 c0 -13 -1 -30 -2 -38 -1 -18 -20 -20 -59 -7 -41 13 -60
-8 -23 -24 20 -10 32 -10 45 -2 16 10 22 3 54 -62 89 -180 144 -361 164 -538
l6 -59 -41 21 c-38 20 -72 20 -72 0 0 -15 50 -42 80 -43 33 -1 33 -3 30 -101
-2 -63 -5 -85 -20 -163 -13 -62 -13 -62 -36 -47 -35 23 -61 18 -101 -18 -25
-24 -34 -39 -30 -51 9 -23 44 -13 77 22 18 19 33 26 52 24 23 -3 26 -6 18 -25
-58 -149 -79 -196 -101 -224 -14 -20 -18 -21 -23 -7 -11 29 -34 -3 -31 -44 2
-28 -4 -46 -27 -75 -38 -47 -31 -60 7 -15 15 18 34 36 43 39 8 3 17 16 19 28
5 32 46 89 51 70 12 -44 13 -45 28 -25 16 23 19 83 4 88 -7 2 -6 14 2 35 l12
32 11 -31 c10 -32 39 -57 51 -45 12 12 -17 97 -33 97 -11 0 -13 6 -9 23 31
105 56 221 56 264 0 52 0 52 29 47 46 -10 96 57 55 73 -11 4 -25 -4 -43 -25
-14 -18 -28 -32 -31 -32 -3 0 -5 16 -5 36 1 60 -21 253 -31 284 -3 8 -17 52
-30 98 -13 45 -46 132 -74 193 -48 108 -49 112 -30 128 23 20 30 56 11 56 -8
0 -20 -16 -26 -35 -12 -35 -12 -35 -24 -12 -11 20 -10 26 4 36 23 16 30 76 10
76 -8 0 -16 -10 -17 -22z"/>
<path d="M1136 1675 c-7 -20 10 -28 41 -20 17 4 22 10 16 16 -16 16 -51 18
-57 4z"/>
<path d="M800 1595 c0 -14 32 -65 40 -65 13 0 13 6 -5 40 -13 26 -35 41 -35
25z"/>
<path d="M1354 1572 c-11 -7 -34 -45 -34 -56 0 -12 28 -6 40 8 14 18 10 59 -6
48z"/>
<path d="M1190 1556 c0 -18 49 -31 64 -16 8 8 7 13 -4 20 -23 15 -60 12 -60
-4z"/>
<path d="M888 1525 c-3 -24 0 -35 9 -35 7 0 13 6 14 13 0 6 2 22 3 35 2 12 -3
22 -10 22 -6 0 -14 -16 -16 -35z"/>
<path d="M806 1503 c-12 -12 -5 -21 24 -32 23 -8 30 -7 30 3 0 14 -45 38 -54
29z"/>
<path d="M925 1495 c-3 -8 -7 -22 -10 -30 -2 -8 0 -17 5 -20 10 -6 30 26 30
49 0 20 -19 21 -25 1z"/>
<path d="M1392 1502 c-6 -4 -14 -27 -18 -50 -5 -34 -4 -42 9 -42 16 0 22 13
31 62 5 30 -3 41 -22 30z"/>
<path d="M1227 1493 c-12 -12 -7 -21 14 -26 27 -7 49 1 49 19 0 14 -51 20 -63
7z"/>
<path d="M951 1420 c-8 -24 -7 -30 4 -30 14 0 35 29 35 49 0 24 -29 9 -39 -19z"/>
<path d="M830 1425 c7 -9 23 -15 34 -13 33 5 24 23 -13 26 -31 3 -33 2 -21
-13z"/>
<path d="M1230 1416 c0 -24 73 -41 90 -21 8 10 4 15 -21 24 -44 15 -69 14 -69
-3z"/>
<path d="M1414 1395 c-14 -35 -12 -55 6 -55 12 0 40 53 40 75 0 29 -31 15 -46
-20z"/>
<path d="M1000 1374 c-12 -31 -13 -54 -2 -54 10 0 32 45 32 65 0 24 -20 17
-30 -11z"/>
<path d="M1260 1335 c-10 -13 -7 -17 23 -30 36 -15 67 -12 67 7 0 7 -59 38
-73 38 -3 0 -10 -7 -17 -15z"/>
<path d="M1450 1310 c-22 -30 -20 -50 5 -50 17 0 45 38 45 62 0 28 -26 21 -50
-12z"/>
<path d="M1027 1323 c-2 -5 -7 -20 -11 -35 -11 -47 23 -29 38 20 5 16 3 22 -8
22 -8 0 -17 -3 -19 -7z"/>
<path d="M1914 1265 c-3 -20 -4 -38 -1 -42 7 -7 36 59 30 70 -10 17 -23 5 -29
-28z"/>
<path d="M1066 1249 c-9 -13 -16 -29 -16 -36 0 -23 26 -14 39 14 16 35 -1 52
-23 22z"/>
<path d="M1305 1260 c-10 -17 21 -40 52 -40 22 0 42 24 30 36 -12 13 -75 15
-82 4z"/>
<path d="M917 1253 c-14 -13 -6 -22 24 -28 42 -9 62 10 25 25 -32 12 -40 12
-49 3z"/>
<path d="M1857 1243 c-11 -18 5 -63 23 -63 10 0 3 51 -9 63 -5 5 -11 5 -14 0z"/>
<path d="M1509 1217 c-30 -32 -39 -51 -29 -67 7 -11 16 -6 44 22 20 20 36 40
36 46 0 21 -31 20 -51 -1z"/>
<path d="M1930 1190 c-14 -10 -22 -22 -18 -25 8 -8 68 25 68 37 0 14 -24 8
-50 -12z"/>
<path d="M947 1176 c-8 -20 27 -30 53 -16 11 6 18 15 15 21 -10 14 -62 11 -68
-5z"/>
<path d="M1107 1183 c-11 -19 -17 -82 -8 -87 13 -9 28 15 36 57 6 30 4 37 -8
37 -9 0 -18 -3 -20 -7z"/>
<path d="M1329 1174 c-11 -14 -10 -19 11 -36 29 -24 65 -20 65 6 0 13 -12 24
-32 32 -27 11 -33 11 -44 -2z"/>
<path d="M1817 1183 c-8 -14 12 -53 28 -53 18 0 18 1 5 34 -9 25 -24 34 -33
19z"/>
<path d="M1913 1138 c-26 -13 -30 -28 -7 -28 21 0 54 18 54 30 0 13 -19 12
-47 -2z"/>
<path d="M950 1111 c0 -16 26 -30 60 -33 43 -4 50 17 9 31 -38 13 -69 14 -69
2z"/>
<path d="M1502 1085 c-27 -39 -28 -55 -3 -55 20 0 61 44 61 65 0 28 -37 22
-58 -10z"/>
<path d="M1780 1111 c0 -12 29 -41 41 -41 13 0 11 24 -3 38 -14 14 -38 16 -38
3z"/>
<path d="M1135 1080 c-19 -37 -19 -50 0 -50 14 0 55 54 55 73 0 20 -41 4 -55
-23z"/>
<path d="M1335 1087 c-15 -11 -14 -15 8 -35 25 -24 77 -34 83 -17 2 6 -14 22
-36 37 -31 22 -41 24 -55 15z"/>
<path d="M1893 1073 c-25 -10 -12 -24 19 -21 37 4 52 28 16 27 -12 0 -29 -3
-35 -6z"/>
<path d="M1770 1037 c0 -25 25 -55 37 -43 10 9 -10 59 -24 64 -8 2 -13 -6 -13
-21z"/>
<path d="M994 1039 c-8 -14 13 -36 43 -44 29 -7 53 9 37 25 -17 17 -73 30 -80
19z"/>
<path d="M1175 985 c-21 -38 -17 -50 13 -41 26 9 48 56 30 67 -20 13 -24 11
-43 -26z"/>
<path d="M1526 985 c-33 -28 -30 -56 6 -50 31 6 62 40 55 59 -9 23 -28 20 -61
-9z"/>
<path d="M1730 976 c0 -16 26 -46 41 -46 12 0 11 17 -1 41 -12 22 -40 26 -40
5z"/>
<path d="M1031 947 c-17 -17 7 -37 44 -37 43 0 56 27 17 36 -15 3 -32 7 -38 9
-6 2 -17 -2 -23 -8z"/>
<path d="M1847 948 c-28 -10 -32 -33 -6 -33 21 -1 60 26 53 36 -6 11 -11 10
-47 -3z"/>
<path d="M1231 918 c-17 -17 -31 -38 -31 -45 0 -21 35 -15 57 10 31 34 34 44
19 56 -10 9 -20 4 -45 -21z"/>
<path d="M1696 911 c-8 -13 38 -51 52 -43 9 6 8 13 -4 30 -15 22 -39 29 -48
13z"/>
<path d="M1350 887 c0 -18 43 -57 63 -57 30 0 27 18 -7 44 -38 29 -56 33 -56
13z"/>
<path d="M1823 878 c-18 -5 -33 -13 -33 -18 0 -17 57 -16 75 1 17 16 -8 27
-42 17z"/>
<path d="M1650 861 c0 -20 36 -71 51 -71 14 0 11 27 -6 60 -17 33 -45 40 -45
11z"/>
<path d="M1037 856 c-7 -17 8 -31 39 -38 37 -9 67 25 39 44 -18 13 -73 9 -78
-6z"/>
<path d="M1241 791 c-26 -36 -27 -51 -2 -51 21 0 64 47 58 64 -7 22 -36 16
-56 -13z"/>
<path d="M1337 803 c-12 -11 -8 -20 17 -36 32 -22 76 -32 76 -18 0 10 -67 61
-81 61 -3 0 -9 -3 -12 -7z"/>
<path d="M1807 791 c-37 -16 -50 -41 -22 -41 24 0 85 28 85 38 0 18 -25 20
-63 3z"/>
<path d="M1619 787 c-4 -43 12 -77 37 -77 17 0 18 21 3 54 -13 27 -38 42 -40
23z"/>
<path d="M1520 767 c-30 -19 -31 -22 -15 -33 15 -11 23 -10 46 2 31 15 38 38
16 47 -8 3 -28 -4 -47 -16z"/>
<path d="M1045 770 c-10 -16 3 -29 46 -41 34 -11 42 -10 55 3 14 14 12 17 -18
27 -51 19 -76 22 -83 11z"/>
<path d="M1751 716 c-40 -14 -50 -31 -23 -38 25 -7 85 19 80 34 -6 17 -19 18
-57 4z"/>
<path d="M1266 691 c-29 -30 -28 -51 3 -51 19 0 61 39 61 57 0 9 -21 23 -34
23 -1 0 -15 -13 -30 -29z"/>
<path d="M1344 708 c-9 -14 31 -48 57 -48 28 0 23 23 -10 43 -34 20 -38 21
-47 5z"/>
<path d="M1565 700 c-9 -14 23 -70 40 -70 23 0 27 18 10 50 -15 30 -38 39 -50
20z"/>
<path d="M1486 681 c-28 -18 -28 -19 -8 -30 27 -14 34 -14 57 3 16 12 17 16 6
30 -17 20 -20 20 -55 -3z"/>
<path d="M1530 625 c-7 -8 -16 -12 -21 -9 -5 2 -21 -1 -35 -9 -17 -9 -23 -17
-15 -21 6 -4 11 -27 11 -50 0 -44 19 -74 40 -61 12 7 2 87 -12 96 -5 3 -2 9 6
12 10 4 25 -2 36 -13 21 -21 50 -17 50 6 0 23 -23 64 -35 64 -7 0 -18 -7 -25
-15z"/>
<path d="M1701 631 c-33 -9 -38 -29 -9 -36 34 -9 79 10 72 30 -6 16 -23 17
-63 6z"/>
<path d="M1097 583 c-14 -13 -6 -23 31 -41 65 -32 99 -8 40 28 -34 20 -59 25
-71 13z"/>
<path d="M1633 525 c-42 -18 -45 -46 -5 -41 38 4 74 25 69 39 -6 18 -28 18
-64 2z"/>
<path d="M1293 483 c-46 -32 -14 -64 38 -38 36 19 40 55 7 54 -13 0 -33 -7
-45 -16z"/>
<path d="M1590 453 c-34 -6 -47 -20 -32 -35 15 -15 69 -13 89 3 13 12 13 14
-3 26 -10 7 -20 12 -23 12 -3 -1 -17 -4 -31 -6z"/>
<path d="M1497 356 c-10 -25 23 -41 76 -37 21 1 23 37 1 45 -28 11 -72 6 -77
-8z"/>
<path d="M1394 268 c-4 -6 1 -17 11 -25 34 -24 85 -13 85 18 0 16 -8 19 -44
19 -25 0 -48 -5 -52 -12z"/>
<path d="M1330 197 c0 -19 20 -34 50 -39 20 -2 26 2 28 20 2 13 -2 22 -10 23
-7 0 -25 3 -40 5 -20 3 -28 0 -28 -9z"/>
<path d="M1266 141 c-9 -14 26 -51 52 -56 17 -3 22 1 22 19 0 30 -60 60 -74
37z"/>
</g>
</svg>
